<?xml version="1.0" encoding="utf-8"?>
<svg id="master-artboard" viewBox="0 0 1400 980" version="1.1" xmlns="http://www.w3.org/2000/svg" x="0px" y="0px" style="enable-background:new 0 0 336 235.2;" width="1400px" height="980px"><g transform="matrix(1.6523815393447876, 0, 0, 1.605607032775879, -507.696169633603, -509.11038599106416)"><g transform="matrix(1.7250258922576904, 0, 0, 1.7250258922576904, -35.12405395507818, 289.5381774902343)"><g transform="matrix(1, 0, 0, 1, 5.684341886080802e-14, 0)"><path d="M 477.1000061035156 253.1999969482422 L 500.8999938964844 281.20001220703125 L 526.7999877929688 257.29998779296875 L 497.8999938964844 230.39999389648438 Z" class="st3" style="fill: rgb(248, 153, 29); stroke: rgb(0, 0, 0); stroke-width: 3; stroke-opacity: 0.9; fill-opacity: 1;" transform="matrix(1, 0, 0, 1, 5.684341886080802e-14, 0)"/><path d="M 618.9000244140625 172.5 L 660.2999877929688 165.1999969482422 L 683.0999755859375 121.80000305175781 L 671.7000122070312 115.5 L 651 131.10000610351562 L 639.5999755859375 135.1999969482422 L 628.2000122070312 120.69999694824219 L 629.2999877929688 109.30000305175781 L 656.2000122070312 95.9000015258789 L 656.2000122070312 76.19999694824219 L 594.0999755859375 88.5999984741211 L 584.7000122070312 135.1999969482422 L 572.2000122070312 149 L 606.2000122070312 184.1999969482422 Z" class="st3" style="fill: rgb(248, 153, 29); stroke: rgb(0, 0, 0); stroke-width: 3; stroke-opacity: 0.9; fill-opacity: 1;" transform="matrix(1, 0, 0, 1, 5.684341886080802e-14, 0)"/><path d="M 480.20001220703125 213.89999389648438 L 497.8999938964844 230.39999389648438 L 526.7999877929688 257.29998779296875 L 539.2000122070312 268.79998779296875 L 556.7999877929688 253.1999969482422 L 565.0999755859375 255.3000030517578 L 583.7000122070312 237.6999969482422 L 592 241.8000030517578 L 605.4000244140625 225.3000030517578 L 601.2999877929688 216 L 619.9000244140625 198.39999389648438 L 606.2000122070312 184.1999969482422 L 572.2000122070312 149 L 558.9000244140625 135.1999969482422 L 520.5999755859375 137.3000030517578 L 497.79998779296875 114.5 L 449.1000061035156 162.10000610351562 L 479.20001220703125 193.1999969482422 Z" class="st1" style="fill: rgb(94, 40, 0); stroke: rgb(0, 0, 0); stroke-width: 3; stroke-opacity: 0.9; fill-opacity: 1;" transform="matrix(1, 0, 0, 1, 5.684341886080802e-14, 0)"/></g></g><g transform="matrix(1.3430901765823364, 0, 0, 1.3430901765823364, -147.5845794677735, -34.247596740722656)"><title>build_your_ home</title><path d="M 696.087891 317.273987 A 48.18335 48.18335 0 0 1 647.904541 365.457336 A 48.18335 48.18335 0 0 1 599.721191 317.273987 A 48.18335 48.18335 0 0 1 647.904541 269.090637 A 48.18335 48.18335 0 0 1 696.087891 317.273987 Z" fill="#f9a826" style="stroke: rgb(0, 0, 0); stroke-width: 3; stroke-opacity: 0.9; fill-opacity: 1;" transform="matrix(1, 0, 0, 1, 23.596958522621065, 1.655753493206845)"/><path d="M323.746,374.59681a8.46527,8.46527,0,0,1-3.78865,6.95687l-.31681.198H176.90559l.57424-1.7491c.099-.31024,10.54752-30.63275,56.80354-24.77815,4.36289-1.49167,46.93585-15.39223,72.42021.22444C318.01017,362.37936,323.746,368.82141,323.746,374.59681Z" transform="matrix(1, 0, 0, 1, 314.0248501002927, 50.62529996843597)" fill="#f2f2f2" style="stroke: rgb(0, 0, 0); stroke-width: 3; stroke-opacity: 0.9; fill-opacity: 1;"/><path d="M551.67645,621.28332c14.36643.30818,25.79475,10.71922,25.79475,10.71922s-11.86426,9.9114-26.23069,9.60322-25.79475-10.71923-25.79475-10.71923S537.31,620.97514,551.67645,621.28332Z" transform="translate(-21.2132 -95)" fill="#f9a826" style="stroke: rgb(0, 0, 0); stroke-width: 3; stroke-opacity: 0.9; fill-opacity: 1;"/><path d="M479.44938,572.24324c12.97945,6.16629,27.86273,1.98484,27.86273,1.98484s-6.16057-14.179-19.14-20.34529-27.86272-1.98484-27.86272-1.98484S466.46994,566.07694,479.44938,572.24324Z" transform="translate(-21.2132 -95)" fill="#f9a826" style="stroke: rgb(0, 0, 0); stroke-width: 3; stroke-opacity: 0.9; fill-opacity: 1;"/><path d="M480.76878,566.11552c14.3101-1.30779,26.83571,7.75342,26.83571,7.75342s-10.67564,11.18155-24.98575,12.48933-26.83571-7.75342-26.83571-7.75342S466.45868,567.42331,480.76878,566.11552Z" transform="translate(-21.2132 -95)" fill="#3f3d56" style="stroke: rgb(0, 0, 0); stroke-width: 3; stroke-opacity: 0.9; fill-opacity: 1;"/><path d="M533.22513,568.59307c-1.37162,14.30413,7.63362,26.87,7.63362,26.87s11.22907-10.62565,12.60068-24.92978-7.63361-26.87-7.63361-26.87S534.59675,554.289,533.22513,568.59307Z" transform="translate(-21.2132 -95)" fill="#3f3d56" style="stroke: rgb(0, 0, 0); stroke-width: 3; stroke-opacity: 0.9; fill-opacity: 1;"/><path d="M600.61862,656.31983c-7.50572,12.25371-4.92339,27.496-4.92339,27.496s14.75151-4.62488,22.25723-16.8786,4.92339-27.496,4.92339-27.496S608.12434,644.06612,600.61862,656.31983Z" transform="translate(-21.2132 -95)" fill="#3f3d56" style="stroke: rgb(0, 0, 0); stroke-width: 3; stroke-opacity: 0.9; fill-opacity: 1;"/><path d="M578.84357,789.54916l1.09384-.73933a34.26881,34.26881,0,0,1-6.04806-19.00436c.03062-9.93872,4.91232-19.13134,9.63351-28.02133.87631-1.65012,1.74971-3.29507,2.58991-4.93874a107.80857,107.80857,0,0,0,8.38529-21.05057c7.323-27.21368.11312-59.32065-19.286-85.88653-15.38925-21.07441-38.33-39.50284-70.13245-56.33853l-.6175,1.16669c31.62129,16.73964,54.41511,35.04141,69.68383,55.95049,19.16582,26.24584,26.29741,57.93385,19.07719,84.765a106.52771,106.52771,0,0,1-8.28538,20.79273c-.83763,1.63755-1.7078,3.27606-2.58088,4.92037-4.79629,9.0318-9.756,18.37107-9.78757,28.63658A35.60093,35.60093,0,0,0,578.84357,789.54916Z" transform="translate(-21.2132 -95)" fill="#3f3d56" style="stroke: rgb(0, 0, 0); stroke-width: 3; stroke-opacity: 0.9; fill-opacity: 1;"/><path d="M 433.719672 467.763458 A 12.54087 12.54087 0 0 1 421.178802 480.304328 A 12.54087 12.54087 0 0 1 408.637933 467.763458 A 12.54087 12.54087 0 0 1 421.178802 455.222589 A 12.54087 12.54087 0 0 1 433.719672 467.763458 Z" fill="#3f3d56" style="stroke: rgb(0, 0, 0); stroke-width: 3; stroke-opacity: 0.9; fill-opacity: 1;"/><path d="M 477.049103 612.962891 H 931.820709 V 709.32959 H 477.049103 V 612.962891 Z" fill="#f2f2f2" style="stroke: rgb(0, 0, 0); stroke-width: 3; stroke-opacity: 0.9; fill-opacity: 1;"/><path d="M 462.52801513671875 623.5239868164062 L 512.031982421875 519.89599609375 L 907.3989868164062 519.89599609375 L 944.3619995117188 623.5239868164062 L 462.52801513671875 623.5239868164062 Z" fill="#3f3d56" style="stroke: rgb(0, 0, 0); stroke-width: 3; stroke-opacity: 0.9; fill-opacity: 1;"/><path d="M 585.956665 526.496887 H 769.449417 V 587.221107 H 585.956665 V 526.496887 Z" fill="#f2f2f2" style="stroke: rgb(0, 0, 0); stroke-width: 3; stroke-opacity: 0.9; fill-opacity: 1;"/><path d="M 602.127808 632.104248 H 747.007874 V 709.32962 H 602.127808 V 632.104248 Z" fill="#ccc" style="stroke: rgb(0, 0, 0); stroke-width: 3; stroke-opacity: 0.9; fill-opacity: 1;"/><path d="M 494.870331 634.744446 H 572.095703 V 709.329628 H 494.870331 V 634.744446 Z" fill="#ccc" style="stroke: rgb(0, 0, 0); stroke-width: 3; stroke-opacity: 0.9; fill-opacity: 1;"/><path d="M 772.0896 639.364746 H 812.022369 V 709.329605 H 772.0896 V 639.364746 Z" fill="#3f3d56" style="stroke: rgb(0, 0, 0); stroke-width: 3; stroke-opacity: 0.9; fill-opacity: 1;"/><path d="M 855.255371 643.325012 H 874.726721 V 661.476273 H 855.255371 V 643.325012 Z" fill="#f9a826" style="stroke: rgb(0, 0, 0); stroke-width: 3; stroke-opacity: 0.9; fill-opacity: 1;"/><path d="M 881.327209 643.325012 H 900.798559 V 661.476273 H 881.327209 V 643.325012 Z" fill="#f9a826" style="stroke: rgb(0, 0, 0); stroke-width: 3; stroke-opacity: 0.9; fill-opacity: 1;"/><path d="M 855.255371 668.076721 H 874.726721 V 686.888031 H 855.255371 V 668.076721 Z" fill="#f9a826" style="stroke: rgb(0, 0, 0); stroke-width: 3; stroke-opacity: 0.9; fill-opacity: 1;"/><path d="M 881.327209 668.076721 H 900.798559 V 686.888031 H 881.327209 V 668.076721 Z" fill="#f9a826" style="stroke: rgb(0, 0, 0); stroke-width: 3; stroke-opacity: 0.9; fill-opacity: 1;"/><path d="M 602.787842 543.112854 H 618.026292 V 557.318184 H 602.787842 V 543.112854 Z" fill="#3f3d56" style="stroke: rgb(0, 0, 0); stroke-width: 3; stroke-opacity: 0.9; fill-opacity: 1;"/><path d="M 623.191833 543.112854 H 638.430284 V 557.318184 H 623.191833 V 543.112854 Z" fill="#3f3d56" style="stroke: rgb(0, 0, 0); stroke-width: 3; stroke-opacity: 0.9; fill-opacity: 1;"/><path d="M 602.787842 562.483765 H 618.026292 V 577.205655 H 602.787842 V 562.483765 Z" fill="#3f3d56" style="stroke: rgb(0, 0, 0); stroke-width: 3; stroke-opacity: 0.9; fill-opacity: 1;"/><path d="M 623.191833 562.483765 H 638.430284 V 577.205655 H 623.191833 V 562.483765 Z" fill="#3f3d56" style="stroke: rgb(0, 0, 0); stroke-width: 3; stroke-opacity: 0.9; fill-opacity: 1;"/><path d="M 716.975769 543.112854 H 732.214219 V 557.318184 H 716.975769 V 543.112854 Z" fill="#3f3d56" style="stroke: rgb(0, 0, 0); stroke-width: 3; stroke-opacity: 0.9; fill-opacity: 1;"/><path d="M 737.379761 543.112854 H 752.618211 V 557.318184 H 737.379761 V 543.112854 Z" fill="#3f3d56" style="stroke: rgb(0, 0, 0); stroke-width: 3; stroke-opacity: 0.9; fill-opacity: 1;"/><path d="M 716.975769 562.483765 H 732.214219 V 577.205655 H 716.975769 V 562.483765 Z" fill="#3f3d56" style="stroke: rgb(0, 0, 0); stroke-width: 3; stroke-opacity: 0.9; fill-opacity: 1;"/><path d="M 737.379761 562.483765 H 752.618211 V 577.205655 H 737.379761 V 562.483765 Z" fill="#3f3d56" style="stroke: rgb(0, 0, 0); stroke-width: 3; stroke-opacity: 0.9; fill-opacity: 1;"/><path d="M 660.211792 543.112854 H 675.450242 V 557.318184 H 660.211792 V 543.112854 Z" fill="#3f3d56" style="stroke: rgb(0, 0, 0); stroke-width: 3; stroke-opacity: 0.9; fill-opacity: 1;"/><path d="M 680.615845 543.112854 H 695.854295 V 557.318184 H 680.615845 V 543.112854 Z" fill="#3f3d56" style="stroke: rgb(0, 0, 0); stroke-width: 3; stroke-opacity: 0.9; fill-opacity: 1;"/><path d="M 660.211792 562.483765 H 675.450242 V 577.205655 H 660.211792 V 562.483765 Z" fill="#3f3d56" style="stroke: rgb(0, 0, 0); stroke-width: 3; stroke-opacity: 0.9; fill-opacity: 1;"/><path d="M 680.615845 562.483765 H 695.854295 V 577.205655 H 680.615845 V 562.483765 Z" fill="#3f3d56" style="stroke: rgb(0, 0, 0); stroke-width: 3; stroke-opacity: 0.9; fill-opacity: 1;"/><path d="M 781.000183 646.453064 H 790.594763 V 655.397164 H 781.000183 V 646.453064 Z" fill="#f2f2f2" style="stroke: rgb(0, 0, 0); stroke-width: 3; stroke-opacity: 0.9; fill-opacity: 1;"/><path d="M 793.847168 646.453064 H 803.441748 V 655.397164 H 793.847168 V 646.453064 Z" fill="#f2f2f2" style="stroke: rgb(0, 0, 0); stroke-width: 3; stroke-opacity: 0.9; fill-opacity: 1;"/><path d="M 781.000183 658.649536 H 790.594763 V 667.918876 H 781.000183 V 658.649536 Z" fill="#f2f2f2" style="stroke: rgb(0, 0, 0); stroke-width: 3; stroke-opacity: 0.9; fill-opacity: 1;"/><path d="M 793.847168 658.649536 H 803.441748 V 667.918876 H 793.847168 V 658.649536 Z" fill="#f2f2f2" style="stroke: rgb(0, 0, 0); stroke-width: 3; stroke-opacity: 0.9; fill-opacity: 1;"/><path d="M 809.382185 679.297546 A 2.64018 2.64018 0 0 1 806.742004 681.937726 A 2.64018 2.64018 0 0 1 804.101824 679.297546 A 2.64018 2.64018 0 0 1 806.742004 676.657366 A 2.64018 2.64018 0 0 1 809.382185 679.297546 Z" fill="#f2f2f2" style="stroke: rgb(0, 0, 0); stroke-width: 3; stroke-opacity: 0.9; fill-opacity: 1;"/><path d="M 647.5750122070312 461.1629943847656 L 625.7930297851562 461.1629943847656 L 625.7930297851562 466.3970031738281 L 630.1500244140625 466.3970031738281 L 630.1500244140625 481.6239929199219 L 643.218994140625 481.6239929199219 L 643.218994140625 466.3970031738281 L 647.5750122070312 466.3970031738281 L 647.5750122070312 461.1629943847656 Z" fill="#f2f2f2" style="stroke: rgb(0, 0, 0); stroke-width: 3; stroke-opacity: 0.9; fill-opacity: 1;"/><path d="M 597.8369750976562 476.9930114746094 L 568.7949829101562 537.718017578125 L 786.6110229492188 537.718017578125 L 769.448974609375 476.9930114746094 L 597.8369750976562 476.9930114746094 Z" fill="#3f3d56" style="stroke: rgb(0, 0, 0); stroke-width: 3; stroke-opacity: 0.9; fill-opacity: 1;"/><path d="M624.175,781.88059c-3.75241,13.87115-16.60525,22.4619-16.60525,22.4619s-6.769-13.89882-3.01658-27.77,16.60525-22.4619,16.60525-22.4619S627.92736,768.00945,624.175,781.88059Z" transform="translate(-21.2132 -95)" fill="#f9a826" style="stroke: rgb(0, 0, 0); stroke-width: 3; stroke-opacity: 0.9; fill-opacity: 1;"/><path d="M590.03853,781.88059c3.75241,13.87115,16.60524,22.4619,16.60524,22.4619s6.769-13.89882,3.01658-27.77-16.60524-22.4619-16.60524-22.4619S586.28612,768.00945,590.03853,781.88059Z" transform="translate(-21.2132 -95)" fill="#f9a826" style="stroke: rgb(0, 0, 0); stroke-width: 3; stroke-opacity: 0.9; fill-opacity: 1;"/><path d="M595.55243,778.89953c10.29665,10.02338,11.55431,25.43165,11.55431,25.43165s-15.43651-.84284-25.73317-10.86622-11.55432-25.43165-11.55432-25.43165S585.25577,768.87615,595.55243,778.89953Z" transform="translate(-21.2132 -95)" fill="#3f3d56" style="stroke: rgb(0, 0, 0); stroke-width: 3; stroke-opacity: 0.9; fill-opacity: 1;"/><path d="M618.66106,778.89953c-10.29665,10.02338-11.55432,25.43165-11.55432,25.43165s15.43652-.84284,25.73318-10.86622,11.55431-25.43165,11.55431-25.43165S628.95772,768.87615,618.66106,778.89953Z" transform="translate(-21.2132 -95)" fill="#3f3d56" style="stroke: rgb(0, 0, 0); stroke-width: 3; stroke-opacity: 0.9; fill-opacity: 1;"/><path d="M 0 708.679932 H 1157.573608 V 710.000022 H 0 V 708.679932 Z" fill="#3f3d56" style="stroke: rgb(0, 0, 0); stroke-width: 3; stroke-opacity: 0.9; fill-opacity: 1;"/><path d="M769.44473,428.22073a8.46527,8.46527,0,0,1-3.78866,6.95687l-.31681.198H622.60434l.57424-1.7491c.099-.31024,10.54752-30.63275,56.80355-24.77815,4.36289-1.49167,46.93585-15.39223,72.42021.22443C763.70893,416.00328,769.44473,422.44533,769.44473,428.22073Z" transform="matrix(1, 0, 0, 1, 24.908128406008103, -89.48082168931046)" fill="#f2f2f2" style="stroke: rgb(0, 0, 0); stroke-width: 3; stroke-opacity: 0.9; fill-opacity: 1;"/><path d="M330.07051,595.96634a8.46529,8.46529,0,0,1-3.78866,6.95687l-.31681.198H183.23012l.57424-1.74909c.099-.31025,10.54752-30.63276,56.80354-24.77815,4.3629-1.49167,46.93586-15.39224,72.42022.22443C324.33471,583.74888,330.07051,590.19094,330.07051,595.96634Z" transform="matrix(1, 0, 0, 1, 207.18461543207252, -239.70633292259478)" fill="#f2f2f2" style="stroke: rgb(0, 0, 0); stroke-width: 3; stroke-opacity: 0.9; fill-opacity: 1;"/><path style="fill: rgb(63, 61, 86); fill-opacity: 1; stroke: rgb(0, 0, 0); stroke-opacity: 0.9; stroke-width: 3; paint-order: fill;" d="M 671.4254150390625 518.3861694335938"/></g></g></svg>